<svg width="182" height="40" viewBox="0 0 182 40" fill="none" xmlns="http://www.w3.org/2000/svg">
<rect width="40" height="40" fill="#D9D9D9"/>
<path d="M67.496 10.154V29H63.716V20.981H55.643V29H51.863V10.154H55.643V17.903H63.716V10.154H67.496ZM85.1215 21.197C85.1215 21.737 85.0855 22.223 85.0135 22.655H74.0785C74.1685 23.735 74.5465 24.581 75.2125 25.193C75.8785 25.805 76.6975 26.111 77.6695 26.111C79.0735 26.111 80.0725 25.508 80.6665 24.302H84.7435C84.3115 25.742 83.4835 26.93 82.2595 27.866C81.0355 28.784 79.5325 29.243 77.7505 29.243C76.3105 29.243 75.0145 28.928 73.8625 28.298C72.7285 27.65 71.8375 26.741 71.1895 25.571C70.5595 24.401 70.2445 23.051 70.2445 21.521C70.2445 19.973 70.5595 18.614 71.1895 17.444C71.8195 16.274 72.7015 15.374 73.8355 14.744C74.9695 14.114 76.2745 13.799 77.7505 13.799C79.1725 13.799 80.4415 14.105 81.5575 14.717C82.6915 15.329 83.5645 16.202 84.1765 17.336C84.8065 18.452 85.1215 19.739 85.1215 21.197ZM81.2065 20.117C81.1885 19.145 80.8375 18.371 80.1535 17.795C79.4695 17.201 78.6325 16.904 77.6425 16.904C76.7065 16.904 75.9145 17.192 75.2665 17.768C74.6365 18.326 74.2495 19.109 74.1055 20.117H81.2065ZM91.6606 9.02V29H87.8806V9.02H91.6606ZM99.1752 16.202C99.6612 15.518 100.327 14.951 101.173 14.501C102.037 14.033 103.018 13.799 104.116 13.799C105.394 13.799 106.546 14.114 107.572 14.744C108.616 15.374 109.435 16.274 110.029 17.444C110.641 18.596 110.947 19.937 110.947 21.467C110.947 22.997 110.641 24.356 110.029 25.544C109.435 26.714 108.616 27.623 107.572 28.271C106.546 28.919 105.394 29.243 104.116 29.243C103.018 29.243 102.046 29.018 101.2 28.568C100.372 28.118 99.6972 27.551 99.1752 26.867V36.128H95.3952V14.042H99.1752V16.202ZM107.086 21.467C107.086 20.567 106.897 19.793 106.519 19.145C106.159 18.479 105.673 17.975 105.061 17.633C104.467 17.291 103.819 17.12 103.117 17.12C102.433 17.12 101.785 17.3 101.173 17.66C100.579 18.002 100.093 18.506 99.7152 19.172C99.3552 19.838 99.1752 20.621 99.1752 21.521C99.1752 22.421 99.3552 23.204 99.7152 23.87C100.093 24.536 100.579 25.049 101.173 25.409C101.785 25.751 102.433 25.922 103.117 25.922C103.819 25.922 104.467 25.742 105.061 25.382C105.673 25.022 106.159 24.509 106.519 23.843C106.897 23.177 107.086 22.385 107.086 21.467ZM129.327 10.154V29H125.547V20.981H117.474V29H113.694V10.154H117.474V17.903H125.547V10.154H129.327ZM147.169 14.042V29H143.362V27.11C142.876 27.758 142.237 28.271 141.445 28.649C140.671 29.009 139.825 29.189 138.907 29.189C137.737 29.189 136.702 28.946 135.802 28.46C134.902 27.956 134.191 27.227 133.669 26.273C133.165 25.301 132.913 24.149 132.913 22.817V14.042H136.693V22.277C136.693 23.465 136.99 24.383 137.584 25.031C138.178 25.661 138.988 25.976 140.014 25.976C141.058 25.976 141.877 25.661 142.471 25.031C143.065 24.383 143.362 23.465 143.362 22.277V14.042H147.169ZM154.678 16.229C155.164 15.509 155.83 14.924 156.676 14.474C157.54 14.024 158.521 13.799 159.619 13.799C160.897 13.799 162.049 14.114 163.075 14.744C164.119 15.374 164.938 16.274 165.532 17.444C166.144 18.596 166.45 19.937 166.45 21.467C166.45 22.997 166.144 24.356 165.532 25.544C164.938 26.714 164.119 27.623 163.075 28.271C162.049 28.919 160.897 29.243 159.619 29.243C158.503 29.243 157.522 29.027 156.676 28.595C155.848 28.145 155.182 27.569 154.678 26.867V29H150.898V9.02H154.678V16.229ZM162.589 21.467C162.589 20.567 162.4 19.793 162.022 19.145C161.662 18.479 161.176 17.975 160.564 17.633C159.97 17.291 159.322 17.12 158.62 17.12C157.936 17.12 157.288 17.3 156.676 17.66C156.082 18.002 155.596 18.506 155.218 19.172C154.858 19.838 154.678 20.621 154.678 21.521C154.678 22.421 154.858 23.204 155.218 23.87C155.596 24.536 156.082 25.049 156.676 25.409C157.288 25.751 157.936 25.922 158.62 25.922C159.322 25.922 159.97 25.742 160.564 25.382C161.176 25.022 161.662 24.509 162.022 23.843C162.4 23.177 162.589 22.385 162.589 21.467Z" fill="#292929"/>
</svg>
